# AST/ASF file generated using VICON BodyLanguage
# -----------------------------------------------
:version 1.10
:name VICON
:units
  mass 1.0
  length 0.45
  angle deg
:documentation
   .ast/.asf automatically generated from VICON data using
   VICON BodyBuilder and BodyLanguage model FoxedUp or BRILLIANT.MOD
:root
   order TX TY TZ RX RY RZ
   axis XYZ
   position 0 0 0  
   orientation 0 0 0 
:bonedata
  begin
     id 1 
     name lhipjoint
     direction 0.588788 -0.725889 0.355548 
     length 2.37778 
     axis 0 0 0  XYZ
  end
  begin
     id 2 
     name lfemur
     direction 0.34202 -0.939693 0  
     length 6.86393  
     axis 0 0 20  XYZ
    dof rx ry rz
    limits (-160.0 20.0)
           (-70.0 70.0)
           (-60.0 70.0)
  end
  begin
     id 3 
     name ltibia
     direction 0.34202 -0.939693 0   
     length 7.32851   
     axis 0 0 20   XYZ
    dof rx
    limits (-10.0 170.0)
  end
  begin
     id 4 
     name lfoot
     direction 0.0626533 -0.172138 0.983078   
     length 1.98929   
     axis -90 7.62852e-016 20   XYZ
    dof rx rz
    limits (-45.0 90.0)
           (-70.0 20.0)
  end
  begin
     id 5 
     name ltoes
     direction 1.53647e-011 -4.21734e-011 1   
     length 1.00479   
     axis -90 7.62852e-016 20   XYZ
    dof rx
    limits (-90.0 20.0)
  end
  begin
     id 6 
     name rhipjoint
     direction -0.59141 -0.724168 0.354705   
     length 2.38343  
     axis 0 0 0  XYZ 
  end
  begin
     id 7 
     name rfemur
     direction -0.34202 -0.939693 0   
     length 6.95589   
     axis 0 0 -20   XYZ
    dof rx ry rz
    limits (-160.0 20.0)
           (-70.0 70.0)
           (-70.0 60.0)
  end
  begin
     id 8 
     name rtibia
     direction -0.34202 -0.939693 0   
     length 7.32327   
     axis 0 0 -20   XYZ
    dof rx
    limits (-10.0 170.0)
 end
 begin
     id 9 
     name rfoot
     direction -0.0660461 -0.18146 0.981178   
     length 1.85272  
     axis -90 -7.62852e-016 -20   XYZ
    dof rx rz
    limits (-45.0 90.0)
           (-20.0 70.0)
  end
  begin
     id 10 
     name rtoes
     direction -1.53586e-011 -4.21988e-011 1   
     length 0.93746   
     axis -90 -7.62852e-016 -20   XYZ
    dof rx
    limits (-90.0 20.0)
  end
  begin
     id 11 
     name lowerback
     direction -0.0107982 0.991059 0.13299   
     length 1.98691   
     axis 0 0 0   XYZ
    dof rx ry rz
    limits (-20.0 45.0)
           (-30.0 30.0)
           (-30.0 30.0)
  end
  begin
     id 12 
     name upperback
     direction 0.0076296 0.999916 0.0104576   
     length 1.99501   
     axis 0 0 0   XYZ
    dof rx ry rz
    limits (-20.0 45.0)
           (-30.0 30.0)
           (-30.0 30.0)
  end
  begin
     id 13 
     name thorax
     direction 0.01176 0.998615 -0.0512909   
     length 2.03144   
     axis 0 0 0   XYZ
    dof rx ry rz
    limits (-20.0 45.0)
           (-30.0 30.0)
           (-30.0 30.0)
  end
  begin
     id 14 
     name lowerneck
     direction -0.0171909 0.999644 0.0204011   
     length 1.71818   
     axis 0 0 0   XYZ
    dof rx ry rz
    limits (-20.0 45.0)
           (-30.0 30.0)
           (-30.0 30.0)
  end
  begin
     id 15 
     name upperneck
     direction 0.0250902 0.997482 -0.0663316   
     length 1.66199   
     axis 0 0 0   XYZ
    dof rx ry rz
    limits (-20.0 45.0)
           (-30.0 30.0)
           (-30.0 30.0)
  end
  begin
     id 16
     name head
     direction 0.00881535 0.99956 -0.0283365  
     length 1.81545  
     axis 0 0 0   XYZ
    dof rx ry rz
    limits (-20.0 45.0)
           (-30.0 30.0)
           (-30.0 30.0)
  end
  begin
     id 17 
     name lclavicle
     direction 0.840411 0.486876 -0.238035  
     length 3.30409  
     axis 0 0 0   XYZ
    dof ry rz
    limits (-20.0 10.0)
           (0.0 20.0)
  end
  begin
     id 18 
     name lhumerus
     direction 1 -4.48977e-011 -5.16239e-027   
     length 4.62672   
     axis 180 -30 -90   XYZ
    dof rx ry rz
    limits (-60.0 90.0)
           (-90.0 90.0)
           (-90.0 90.0)
  end
  begin
     id 19
     name lradius
     direction 1 -4.48977e-011 -8.71171e-027   
     length 3.11018   
     axis 180 -30 -90   XYZ
    dof rx
    limits (-10.0 170.0)
  end
  begin
     id 20
     name lwrist
     direction 1 -4.48912e-011 -1.03764e-026   
     length 1.55509   
     axis 9.09556e-015 90 90   XYZ
    dof ry
    limits (-180.0 0.0)
 end
  begin
     id 21 
     name lhand
     direction 1 -4.49072e-011 -2.07528e-026   
     length 0.743834   
     axis 1.3242e-014 90 90   XYZ
    dof rx rz
    limits (-90.0 90.0)
           (-45.0 45.0)
  end
  begin
     id 22 
     name lfingers
     direction 1 -4.48909e-011 -4.15056e-026   
     length 0.599698   
     axis 2.64841e-014 90 90   XYZ
    dof rx
    limits (0.0 90.0)
  end
  begin
     id 23
     name lthumb
     direction 0.707107 -6.35013e-011 0.707107   
     length 0.86105   
     axis -90 45 2.85299e-015   XYZ
    dof rx rz
    limits (-45.0 45.0)
           (-45.0 45.0)
  end
  begin
     id 24 
     name rclavicle
     direction -0.835208 0.500237 -0.228452   
     length 3.2716  
     axis 0 0 0   XYZ 
    dof ry rz
    limits (-10.0 20.0)
           (-20.0 0.0)
  end
  begin
     id 25 
     name rhumerus
     direction -1 -4.48978e-011 -5.1953e-028  
     length 4.55919   
     axis 180 30 90   XYZ
    dof rx ry rz
    limits (-90.0 60.0)
           (-90.0 90.0)
           (-90.0 90.0)
  end
  begin
     id 26 
     name rradius
     direction -1 -4.48961e-011 -5.99546e-027   
     length 3.22748   
     axis 180 30 90   XYZ
    dof rx
    limits (-10.0 170.0)
  end
  begin
     id 27 
     name rwrist
     direction -1 -4.48986e-011 -1.03764e-026   
     length 1.61374   
     axis 9.09556e-015 -90 -90   XYZ
    dof ry
    limits (-180.0 0.0)
  end
  begin
     id 28
     name rhand
     direction -1 -4.4899e-011 -2.07528e-026   
     length 0.700882   
     axis 1.3242e-014 -90 -90   XYZ
    dof rx rz
    limits (-90.0 90.0)
           (-45.0 45.0)
  end
  begin
     id 29
     name rfingers
     direction -1 -4.48991e-011 -4.15056e-026   
     length 0.565069   
     axis 2.64841e-014 -90 -90   XYZ
    dof rx
    limits (0.0 90.0)
  end
  begin
     id 30
     name rthumb
     direction -0.707107 -6.34804e-011 0.707107   
     length 0.811329   
     axis -90 -45 -2.85299e-015   XYZ
    dof rx rz
    limits (-45.0 45.0)
           (-45.0 45.0)
  end
:hierarchy
  begin
    root lhipjoint rhipjoint lowerback
    lhipjoint lfemur
    lfemur ltibia
    ltibia lfoot
    lfoot ltoes
    rhipjoint rfemur
    rfemur rtibia
    rtibia rfoot
    rfoot rtoes
    lowerback upperback
    upperback thorax
    thorax lowerneck lclavicle rclavicle
    lowerneck upperneck
    upperneck head
    lclavicle lhumerus
    lhumerus lradius
    lradius lwrist
    lwrist lhand lthumb
    lhand lfingers
    rclavicle rhumerus
    rhumerus rradius
    rradius rwrist
    rwrist rhand rthumb
    rhand rfingers
  end

#!OML:ASF F:\VICON\USERDATA\INSTALL\SteveWalk\SteveWalk.ASF
:FULLY-SPECIFIED
:DEGREES
65
root -0.233887 16.262 -27.1861 15.6017 1.47178 2.61001
lowerback -13.6327 -2.33667 -4.29345
upperback -4.49777 -2.51002 -0.265556
thorax 3.06291 -1.23943 1.73794
lowerneck -2.22833 -1.63024 -1.20991
upperneck 7.00369 -2.38596 3.74421
head 2.67996 -1.1062 1.34002
rclavicle 3.83126e-015 -5.36719e-015
rhumerus -90.6894 -40.7529 -2.16218
rradius 10.2884
rwrist 62.9016
rhand -15.4642 -33.0012
rfingers 7.12502
rthumb 10.717 -62.7078
lclavicle 3.83126e-015 -5.36719e-015
lhumerus -15.1691 -7.37546 80.2302
lradius 39.7398
lwrist 6.75491
lhand -21.9551 -17.0488
lfingers 7.12502
lthumb 4.45215 12.8844
rfemur -47.5274 -6.12503 23.3991
rtibia 25.9318
rfoot -12.3097 -0.08902
rtoes -14.8106
lfemur -8.01534 4.46652 -24.8795
ltibia 24.166
lfoot -24.8617 -9.4086
ltoes -8.59199
66
root -0.239817 16.2534 -26.9558 15.6212 2.15188 2.7091
lowerback -13.7749 -2.51121 -4.3875
upperback -4.42175 -2.71923 -0.214792
thorax 3.23905 -1.34639 1.80182
lowerneck -1.97633 -1.69325 -1.22039
upperneck 6.66004 -2.4657 3.84085
head 2.52306 -1.14911 1.37041
rclavicle 1.95267e-014 -3.97569e-016
rhumerus -91.4257 -39.9121 -1.09094
rradius 10.357
rwrist 62.4111
rhand -16.0999 -32.6262
rfingers 7.12502
rthumb 10.1038 -62.3636
lclavicle 1.95267e-014 -3.97569e-016
lhumerus -14.3795 -8.09235 80.102
lradius 40.8603
lwrist 7.08193
lhand -22.3914 -17.7824
lfingers 7.12502
lthumb 4.03078 12.1592
rfemur -47.7053 -6.86704 23.7417
rtibia 23.6272
rfoot -12.9121 0.996677
rtoes -12.3591
lfemur -6.48129 4.31161 -24.6203
ltibia 22.7682
lfoot -24.3275 -10.3387
ltoes -8.53156
67
root -0.249476 16.2323 -26.725 15.6975 2.58992 2.94595
lowerback -13.7868 -2.69819 -4.67039
upperback -4.45397 -2.92914 -0.17687
thorax 3.23963 -1.44935 1.96472
lowerneck -1.82802 -1.70222 -1.31217
upperneck 6.55128 -2.47296 3.87798
head 2.46236 -1.15655 1.39855
rclavicle -3.37146e-014 -7.55382e-015
rhumerus -92.8069 -39.1003 1.23747
rradius 10.3275
rwrist 63.2253
rhand -15.793 -33.087
rfingers 7.12502
rthumb 10.3998 -62.8098
lclavicle -3.37146e-014 -7.55382e-015
lhumerus -13.9387 -8.66206 79.9174
lradius 42.2284
lwrist 7.48975
lhand -22.4404 -17.948
lfingers 7.12502
lthumb 3.98351 11.9945
rfemur -48.1364 -7.60924 24.1108
rtibia 21.6768
rfoot -13.4426 2.17242
rtoes -13.8176
lfemur -5.02694 4.31314 -24.566
ltibia 21.3969
lfoot -23.8973 -10.9221
ltoes -10.8097
68
root -0.254631 16.2062 -26.4919 15.8571 3.04024 3.25533
lowerback -13.8138 -2.9383 -4.92739
upperback -4.54053 -3.21351 -0.133836
thorax 3.19781 -1.5875 2.10608
lowerneck -1.92653 -1.67781 -1.51805
upperneck 6.73871 -2.43803 3.89006
head 2.54589 -1.14123 1.44016
rclavicle -5.25518e-015 -2.98177e-016
rhumerus -93.2344 -38.2566 2.25867
rradius 10.314
rwrist 63.3129
rhand -14.8222 -33.7035
rfingers 7.12502
rthumb 11.3362 -63.3772
lclavicle -5.25518e-015 -2.98177e-016
lhumerus -13.5242 -8.93935 79.7344
lradius 43.3837
lwrist 7.7736
lhand -22.1514 -18.1581
lfingers 7.12502
lthumb 4.26256 11.779
rfemur -48.6974 -8.50663 24.4903
rtibia 19.7971
rfoot -13.5036 4.00708
rtoes -13.0762
lfemur -3.7838 4.28345 -24.6087
ltibia 20.3482
lfoot -23.5892 -11.2743
ltoes -13.9748
69
root -0.256308 16.1794 -26.2559 16.0788 3.6041 3.43656
lowerback -13.9654 -3.15225 -5.00029
upperback -4.6404 -3.48113 -0.0722577
thorax 3.20166 -1.7178 2.16087
lowerneck -1.96014 -1.77107 -1.63605
upperneck 6.87876 -2.56176 3.88264
head 2.60486 -1.20447 1.4554
rclavicle 2.49087e-014 1.14301e-014
rhumerus -93.0338 -37.4379 2.16815
rradius 10.3651
rwrist 62.4593
rhand -14.1327 -33.919
rfingers 7.12502
rthumb 12.0011 -63.5549
lclavicle 2.49087e-014 1.14301e-014
lhumerus -13.0723 -9.24312 79.5908
lradius 44.3806
lwrist 7.93934
lhand -22.012 -18.2504
lfingers 7.12502
lthumb 4.39719 11.6839
rfemur -49.3227 -9.67216 25.2704
rtibia 18.0602
rfoot -13.324 6.02651
rtoes -12.5819
lfemur -2.71978 3.92847 -24.5053
ltibia 19.594
lfoot -23.2145 -11.4676
ltoes -15.2298
70
root -0.2621 16.141 -26.0216 16.3745 4.1587 3.48413
lowerback -14.1938 -3.33382 -4.91659
upperback -4.67294 -3.72044 -0.01928
thorax 3.30707 -1.83729 2.11703
lowerneck -2.03564 -1.92026 -1.48093
upperneck 6.7075 -2.75134 3.71353
head 2.56048 -1.30029 1.36625
rclavicle -3.8169e-015 -3.8763e-015
rhumerus -93.206 -36.939 2.54339
rradius 10.3638
rwrist 62.1582
rhand -13.7753 -34.0347
rfingers 7.12502
rthumb 12.3458 -63.6502
lclavicle -3.8169e-015 -3.8763e-015
lhumerus -12.5846 -9.44664 79.3716
lradius 45.488
lwrist 8.15116
lhand -22.014 -18.289
lfingers 7.12502
lthumb 4.39525 11.6454
rfemur -50.287 -11.0159 26.7074
rtibia 16.7288
rfoot -13.5185 7.34598
rtoes -20.4906
lfemur -1.85136 3.47169 -24.2337
ltibia 18.9828
lfoot -22.7728 -11.7899
ltoes -15.3732
